<?xml version="1.0" standalone="no"?>
<!DOCTYPE svg PUBLIC "-//W3C//DTD SVG 20010904//EN"
 "http://www.w3.org/TR/2001/REC-SVG-20010904/DTD/svg10.dtd">
<svg version="1.0" xmlns="http://www.w3.org/2000/svg"
 width="500.000000pt" height="500.000000pt" viewBox="0 0 500.000000 500.000000"
 preserveAspectRatio="xMidYMid meet">

<g transform="translate(0.000000,500.000000) scale(0.100000,-0.100000)"
fill="#000000" stroke="none">
<path d="M330 3940 c0 -583 4 -1060 8 -1060 5 0 104 86 220 190 116 105 215
190 220 190 8 0 134 -110 335 -293 l87 -79 0 1056 0 1056 -435 0 -435 0 0
-1060z m490 655 c0 -129 3 -135 64 -115 48 15 76 53 76 101 0 30 -7 46 -35 73
-52 52 -48 74 6 35 40 -29 61 -74 61 -132 0 -89 -66 -147 -166 -147 -73 0
-121 22 -154 71 -20 28 -23 43 -20 92 5 67 30 99 94 122 75 27 74 29 74 -100z
m143 -273 c36 -35 38 -92 2 -127 -23 -24 -30 -25 -150 -25 l-125 0 0 -24 c0
-37 -17 -40 -35 -6 -16 30 -49 52 -97 64 -50 12 -29 26 37 26 l65 0 0 56 c0
73 24 70 28 -4 l3 -52 112 0 c114 0 157 12 157 44 0 19 -41 52 -72 60 -16 3
-28 11 -28 17 0 20 73 -1 103 -29z m25 -329 c-2 -55 -7 -88 -15 -90 -7 -3 -13
8 -15 24 l-3 28 -130 0 -130 0 -3 -27 c-4 -38 -32 -37 -32 1 0 16 -3 43 -6 60
l-6 31 144 0 c149 0 168 5 168 42 0 10 7 18 15 18 13 0 15 -14 13 -87z m-453
-8 c0 -26 -3 -30 -29 -30 -36 0 -56 26 -36 50 8 9 24 15 39 13 22 -2 26 -8 26
-33z m447 -143 c14 -14 5 -415 -9 -420 -9 -2 -13 6 -13 25 0 54 1 54 -236 51
l-219 -3 -3 -37 c-2 -25 -8 -38 -18 -38 -11 0 -14 22 -14 120 0 100 3 120 15
120 11 0 15 -11 15 -40 l0 -40 228 2 227 3 3 50 c2 27 1 64 -3 82 -8 43 -57
90 -108 104 -23 6 -48 13 -55 15 -7 2 -10 9 -6 15 8 14 181 6 196 -9z"/>
<path d="M701 4614 c-52 -44 -38 -100 32 -129 63 -26 67 -23 67 54 0 38 -3 76
-6 85 -9 25 -59 19 -93 -10z"/>
<path d="M2000 2994 l0 -1036 -45 40 c-104 91 -264 143 -445 143 -141 0 -226
-18 -336 -71 -195 -94 -301 -270 -260 -430 22 -85 51 -136 110 -195 63 -63
187 -127 306 -156 117 -30 298 -23 415 14 154 50 271 142 328 257 l32 65 3
794 2 793 43 -6 c67 -11 177 -68 229 -119 48 -49 108 -154 108 -191 0 -15 -14
-28 -45 -45 -134 -71 -214 -252 -185 -420 16 -96 57 -176 118 -234 72 -67 129
-90 222 -91 66 -1 84 3 142 32 116 57 192 165 208 299 21 163 -42 318 -161
394 l-49 32 0 98 c0 222 -56 322 -240 428 -214 124 -290 192 -339 303 -29 65
-51 178 -51 264 l0 74 -55 0 -55 0 0 -1036z m507 -291 c-2 -65 -8 -126 -12
-135 -12 -29 27 -22 81 15 58 39 106 99 130 164 10 26 19 50 21 52 8 10 43
-35 65 -82 21 -48 23 -65 23 -217 l0 -165 -33 -67 c-37 -76 -69 -103 -138
-119 -105 -24 -206 42 -241 158 -24 80 -25 295 -1 373 17 54 78 140 100 140 7
0 9 -38 5 -117z m-1173 -894 c56 -44 70 -110 36 -166 -45 -74 -139 -83 -197
-19 -38 41 -44 95 -18 146 31 59 127 80 179 39z m426 6 c37 -19 60 -62 60
-110 0 -127 -164 -170 -230 -62 -34 56 -20 122 36 166 32 25 92 28 134 6z"/>
<path d="M3058 2363 c-50 -3 -58 -7 -58 -23 0 -14 7 -20 23 -20 13 0 33 -10
45 -23 21 -22 22 -33 22 -189 0 -180 -1 -183 -58 -194 -18 -4 -32 -13 -32 -20
0 -11 26 -14 125 -14 100 0 125 3 125 14 0 8 -12 17 -27 21 -51 12 -53 19 -53
148 0 102 3 127 21 164 24 49 61 73 114 73 89 0 105 -35 105 -225 0 -108 -3
-147 -12 -149 -7 -3 -25 -7 -40 -10 -16 -4 -28 -13 -28 -21 0 -12 21 -15 125
-15 97 0 125 3 125 13 0 8 -17 18 -37 23 l-38 9 -6 165 c-3 91 -10 177 -16
191 -16 37 -68 77 -109 85 -53 10 -122 -14 -165 -57 l-38 -38 -6 37 c-10 56
-13 62 -32 60 -10 -1 -44 -3 -75 -5z"/>
<path d="M2240 2021 c0 -17 8 -20 53 -23 l52 -3 0 -330 0 -330 -52 -3 c-45 -3
-53 -6 -53 -23 0 -18 8 -19 176 -19 162 0 175 1 172 18 -2 13 -15 18 -53 20
-27 2 -55 8 -62 14 -9 7 -13 41 -13 107 l1 96 57 63 c31 34 60 62 63 62 15 0
211 -310 206 -325 -5 -10 -20 -15 -52 -15 -38 0 -45 -3 -45 -20 0 -19 7 -20
170 -20 163 0 170 1 170 20 0 16 -7 20 -35 20 -24 0 -44 8 -64 28 -30 27 -271
378 -271 393 0 16 176 193 219 221 26 16 59 28 78 28 26 0 33 4 33 20 0 19 -7
20 -155 20 -147 0 -155 -1 -155 -19 0 -15 8 -20 36 -23 46 -4 63 -27 45 -60
-7 -13 -77 -90 -156 -173 l-144 -150 -1 176 c0 125 4 180 13 192 7 10 30 17
62 19 38 2 51 7 53 21 3 16 -10 17 -172 17 -168 0 -176 -1 -176 -19z"/>
<path d="M3205 1770 c-46 -14 -98 -62 -125 -116 -32 -64 -35 -189 -6 -244 26
-49 64 -88 108 -111 48 -25 139 -25 193 0 38 17 115 91 115 110 0 26 -25 19
-59 -18 -38 -42 -93 -71 -133 -71 -12 0 -41 9 -64 21 -49 23 -84 82 -84 142
l0 37 171 0 172 0 -7 57 c-14 117 -90 195 -194 200 -32 1 -70 -2 -87 -7z m125
-47 c40 -23 62 -69 58 -118 l-3 -40 -117 -3 -118 -3 0 31 c0 45 23 92 59 123
38 31 80 35 121 10z"/>
<path d="M3557 1763 c-15 -14 -6 -31 21 -41 24 -8 41 -39 125 -216 l97 -206
-29 -57 c-34 -67 -67 -101 -101 -105 -21 -3 -25 1 -25 25 -1 15 -9 35 -18 45
-16 15 -20 15 -45 2 -41 -24 -42 -70 -2 -104 39 -32 63 -33 120 -3 61 30 88
75 187 306 123 290 129 301 163 313 19 6 30 17 30 29 0 17 -8 19 -100 19 -92
0 -100 -2 -100 -19 0 -13 9 -21 30 -26 56 -12 56 -32 -2 -174 -29 -70 -57
-129 -62 -130 -9 -2 -136 264 -136 285 0 13 23 24 51 24 12 0 19 7 19 20 0 19
-7 20 -108 20 -60 0 -112 -3 -115 -7z"/>
</g>
</svg>
